<svg width="23" height="24" viewBox="0 0 23 24" fill="none" xmlns="http://www.w3.org/2000/svg">
<g id="Frame">
<g id="Group 57725">
<path id="Op component 1" d="M11.5 22.0482C9.4233 22.0482 7.39323 21.4324 5.66652 20.2787C3.9398 19.1249 2.594 17.485 1.79928 15.5664C1.00456 13.6478 0.796611 11.5366 1.20176 9.49977C1.6069 7.46297 2.6069 5.59202 4.07535 4.12357C5.54381 2.65512 7.41475 1.65512 9.45155 1.24997C11.4883 0.844829 13.5996 1.05278 15.5182 1.8475C17.4368 2.64222 19.0767 3.98802 20.2304 5.71473C21.3842 7.44145 22 9.47151 22 11.5482C22 14.333 20.8938 17.0037 18.9246 18.9729C16.9555 20.942 14.2848 22.0482 11.5 22.0482ZM11.5 20.1391C13.1991 20.1391 14.8601 19.6353 16.2728 18.6913C17.6856 17.7473 18.7868 16.4056 19.437 14.8358C20.0872 13.266 20.2573 11.5387 19.9259 9.87223C19.5944 8.20575 18.7761 6.67499 17.5747 5.47353C16.3732 4.27207 14.8425 3.45384 13.176 3.12236C11.5095 2.79088 9.78218 2.961 8.2124 3.61123C6.64261 4.26145 5.30091 5.3626 4.35693 6.77537C3.41295 8.18814 2.90909 9.8491 2.90909 11.5482C2.90909 13.8267 3.81421 16.0118 5.42532 17.6229C7.03642 19.234 9.22155 20.1391 11.5 20.1391Z" fill="#65758B"/>
<path id="Op component 2" d="M12.455 7.7303C12.455 7.20312 12.0276 6.77576 11.5004 6.77576C10.9733 6.77576 10.5459 7.20312 10.5459 7.7303V11.5485C10.5459 12.0757 10.9733 12.503 11.5004 12.503C12.0276 12.503 12.455 12.0757 12.455 11.5485V7.7303Z" fill="#65758B"/>
<path id="Op component 3" d="M11.5004 16.321C12.0276 16.321 12.455 15.8936 12.455 15.3664C12.455 14.8392 12.0276 14.4119 11.5004 14.4119C10.9733 14.4119 10.5459 14.8392 10.5459 15.3664C10.5459 15.8936 10.9733 16.321 11.5004 16.321Z" fill="#65758B"/>
</g>
</g>
</svg>
