<svg width="25" height="25" viewBox="0 0 25 25" fill="none" xmlns="http://www.w3.org/2000/svg">
<path id="Vector" d="M3.83513 8.44588L3.83482 8.44572C3.50409 8.27949 3.36727 7.87476 3.53421 7.54257L3.53421 7.54256C3.70045 7.21184 4.10515 7.07506 4.43732 7.24195L4.43709 7.24184L4.37001 7.37601L4.43736 7.24198L6.528 8.2873L6.52905 8.28782C6.61415 8.33121 6.69113 8.39298 6.75186 8.46889M3.83513 8.44588L6.63473 8.5626M3.83513 8.44588L5.79332 9.42435L7.79281 11.9231C7.79288 11.9231 7.79295 11.9232 7.79302 11.9233C7.9111 12.0716 8.08911 12.1639 8.2806 12.1742C8.47202 12.1858 8.65811 12.1129 8.79316 11.9795L8.79382 11.9789M3.83513 8.44588L8.79382 11.9789M6.75186 8.46889L6.63473 8.5626M6.75186 8.46889L6.75185 8.46888L6.63473 8.5626M6.75186 8.46889L8.37348 10.4956M6.63473 8.5626L8.26676 10.6023L8.37348 10.4956M8.37348 10.4956L9.88583 8.98324M8.37348 10.4956L8.46777 10.6134L10.0024 9.0788M9.88583 8.98324L9.89633 8.97273L10.0024 9.0788M9.88583 8.98324L9.87759 8.9956L10.0024 9.0788M9.88583 8.98324L10.0024 9.0788M8.79382 11.9789L10.8847 9.88796C10.9173 9.85541 10.944 9.82175 10.9679 9.78668L10.9688 9.78541M8.79382 11.9789L10.9688 9.78541M10.9688 9.78541L12.7972 7.04405L14.2461 7.40567L16.2056 9.36524L16.206 9.36562M10.9688 9.78541L16.206 9.36562M16.206 9.36562C16.4428 9.60076 16.8175 9.6279 17.0851 9.42762L17.0852 9.42751M16.206 9.36562L17.0852 9.42751M17.0852 9.42751L18.8432 8.1084L20.5621 8.96848L17.0852 9.42751ZM16.7453 8.00124L16.6412 8.07934L16.7312 8.19932L16.8373 8.09326L16.7453 8.00124ZM24.15 3.66185C24.15 2.13498 22.9132 0.898218 21.3864 0.898218H3.61364C2.08676 0.898218 0.85 2.13498 0.85 3.66185V21.4346C0.85 22.9615 2.08676 24.1982 3.61364 24.1982H21.3864C22.9132 24.1982 24.15 22.9615 24.15 21.4346V3.66185ZM21.4653 8.66789L21.3312 8.60053L20.5623 8.96859C20.8945 9.13535 21.2991 8.99855 21.4653 8.66789ZM22.8045 3.66185V21.4346C22.8045 22.2168 22.1686 22.8528 21.3864 22.8528H3.61364C2.83138 22.8528 2.19545 22.2168 2.19545 21.4346V3.66185C2.19545 2.8796 2.83138 2.24367 3.61364 2.24367H21.3864C22.1686 2.24367 22.8045 2.8796 22.8045 3.66185ZM4.80892 19.8666V12.0255C4.80892 11.6538 4.50785 11.3528 4.1362 11.3528C3.76455 11.3528 3.46347 11.6538 3.46347 12.0255V19.8666C3.46347 20.2382 3.76455 20.5393 4.1362 20.5393C4.50785 20.5393 4.80892 20.2382 4.80892 19.8666ZM6.89983 19.8666V13.0713C6.89983 12.6996 6.59875 12.3986 6.22711 12.3986C5.85546 12.3986 5.55438 12.6996 5.55438 13.0713V19.8666C5.55438 20.2382 5.85546 20.5393 6.22711 20.5393C6.59875 20.5393 6.89983 20.2382 6.89983 19.8666ZM15.2635 19.8666V10.9804C15.2635 10.6087 14.9624 10.3076 14.5907 10.3076C14.2191 10.3076 13.918 10.6087 13.918 10.9804V19.8666C13.918 20.2382 14.2191 20.5393 14.5907 20.5393C14.9624 20.5393 15.2635 20.2382 15.2635 19.8666ZM21.5362 19.8666V12.5484C21.5362 12.1767 21.2351 11.8757 20.8635 11.8757C20.4918 11.8757 20.1907 12.1767 20.1907 12.5484V19.8666C20.1907 20.2382 20.4918 20.5393 20.8635 20.5393C21.2351 20.5393 21.5362 20.2382 21.5362 19.8666ZM19.4453 19.8666V11.5029C19.4453 11.1313 19.1442 10.8302 18.7726 10.8302C18.4009 10.8302 18.0998 11.1313 18.0998 11.5029V19.8666C18.0998 20.2382 18.4009 20.5393 18.7726 20.5393C19.1442 20.5393 19.4453 20.2382 19.4453 19.8666ZM13.1726 19.8666V10.4575C13.1726 10.0858 12.8715 9.78475 12.4998 9.78475C12.1282 9.78475 11.8271 10.0858 11.8271 10.4575V19.8666C11.8271 20.2382 12.1282 20.5393 12.4998 20.5393C12.8715 20.5393 13.1726 20.2382 13.1726 19.8666ZM8.99074 19.8666V15.6847C8.99074 15.3131 8.68966 15.012 8.31801 15.012C7.94637 15.012 7.64529 15.3131 7.64529 15.6847V19.8666C7.64529 20.2382 7.94637 20.5393 8.31801 20.5393C8.68966 20.5393 8.99074 20.2382 8.99074 19.8666ZM11.0817 19.8666V13.5938C11.0817 13.2222 10.7806 12.9211 10.4089 12.9211C10.0373 12.9211 9.7362 13.2222 9.7362 13.5938V19.8666C9.7362 20.2382 10.0373 20.5393 10.4089 20.5393C10.7806 20.5393 11.0817 20.2382 11.0817 19.8666ZM17.3544 19.8666V13.5938C17.3544 13.2222 17.0533 12.9211 16.6817 12.9211C16.31 12.9211 16.0089 13.2222 16.0089 13.5938V19.8666C16.0089 20.2382 16.31 20.5393 16.6817 20.5393C17.0533 20.5393 17.3544 20.2382 17.3544 19.8666Z" fill="#65758B" stroke="#65758B" stroke-width="0.3"/>
</svg>
