<svg width="27" height="25" viewBox="0 0 27 25" fill="none" xmlns="http://www.w3.org/2000/svg">
<g id="Frame 226">
<g id="Group">
<g id="Group_2">
<path id="Vector" d="M3.02383 11.4127C3.02383 17.1891 7.72359 21.8888 13.4999 21.8888C19.2762 21.8888 23.976 17.1891 23.976 11.4127V8.15188C23.976 7.76903 23.6654 7.4584 23.2825 7.4584H3.71731C3.33446 7.4584 3.02383 7.76903 3.02383 8.15188V11.4127ZM4.41078 11.4127V8.84535H22.589V11.4127C22.589 16.4245 18.5116 20.5019 13.4999 20.5019C8.48819 20.5019 4.41078 16.4245 4.41078 11.4127Z" fill="#65758B" stroke="#65758B" stroke-width="0.3"/>
</g>
<g id="Group_3">
<path id="Vector_2" d="M8.45864 14.674C8.45864 17.4536 10.7204 19.7153 13.4999 19.7153C16.2795 19.7153 18.5413 17.4536 18.5413 14.674C18.5413 11.8944 16.2795 9.63271 13.4999 9.63271C10.7204 9.63271 8.45864 11.8944 8.45864 14.674ZM9.8456 14.674C9.8456 12.659 11.485 11.0197 13.4999 11.0197C15.5149 11.0197 17.1543 12.659 17.1543 14.674C17.1543 16.689 15.5149 18.3284 13.4999 18.3284C11.485 18.3284 9.8456 16.689 9.8456 14.674Z" fill="#65758B" stroke="#65758B" stroke-width="0.3"/>
</g>
<g id="Group_4">
<path id="Vector_3" d="M10.6327 14.6739C10.6327 16.2546 11.9183 17.5413 13.5001 17.5413C15.0819 17.5413 16.3675 16.2546 16.3675 14.6739C16.3675 13.0933 15.0819 11.8065 13.5001 11.8065C11.9183 11.8065 10.6327 13.0933 10.6327 14.6739ZM12.0197 14.6739C12.0197 13.8579 12.684 13.1935 13.5001 13.1935C14.3162 13.1935 14.9805 13.8579 14.9805 14.6739C14.9805 15.49 14.3162 16.1544 13.5001 16.1544C12.684 16.1544 12.0197 15.49 12.0197 14.6739Z" fill="#65758B" stroke="#65758B" stroke-width="0.3"/>
</g>
<g id="Group_5">
<path id="Vector_4" d="M2.63043 8.84552H24.3696C25.3513 8.84552 26.15 8.04685 26.15 7.06509V3.80422C26.15 3.42138 25.8394 3.11074 25.4565 3.11074H1.54348C1.16064 3.11074 0.85 3.42138 0.85 3.80422V7.06509C0.85 8.04685 1.64868 8.84552 2.63043 8.84552ZM2.23696 7.06509V4.4977H24.763V7.06509C24.763 7.28205 24.5858 7.45857 24.3696 7.45857H2.63043C2.41417 7.45857 2.23696 7.28205 2.23696 7.06509Z" fill="#65758B" stroke="#65758B" stroke-width="0.3"/>
</g>
<g id="Group_6">
<path id="Vector_5" d="M20.0217 12.1066C20.4047 12.1066 20.7152 11.7961 20.7152 11.4131C20.7152 11.0301 20.4047 10.7196 20.0217 10.7196C19.6388 10.7196 19.3283 11.0301 19.3283 11.4131C19.3283 11.7961 19.6388 12.1066 20.0217 12.1066Z" fill="#65758B" stroke="#65758B" stroke-width="0.3"/>
</g>
</g>
</g>
</svg>
