<svg width="23" height="24" viewBox="0 0 23 24" fill="none" xmlns="http://www.w3.org/2000/svg">
<path d="M2.3 2.89717V8.64717H8.05V2.89717H2.3ZM1.15 0.597168H9.2C9.505 0.597168 9.79756 0.718345 10.0132 0.934012C10.2289 1.14968 10.35 1.44217 10.35 1.74717V9.79717C10.35 10.1022 10.2289 10.3947 10.0132 10.6103C9.79756 10.826 9.505 10.9472 9.2 10.9472H1.15C0.845001 10.9472 0.552441 10.826 0.336774 10.6103C0.121107 10.3947 0 10.1022 0 9.79717V1.74717C0 1.44217 0.121107 1.14968 0.336774 0.934012C0.552441 0.718345 0.845001 0.597168 1.15 0.597168Z" fill="#65758B"/>
<path d="M14.9501 2.89717V8.64717H20.7001V2.89717H14.9501ZM13.8001 0.597168H21.8501C22.1551 0.597168 22.4477 0.718345 22.6634 0.934012C22.879 1.14968 23.0001 1.44217 23.0001 1.74717V9.79717C23.0001 10.1022 22.879 10.3947 22.6634 10.6103C22.4477 10.826 22.1551 10.9472 21.8501 10.9472H13.8001C13.4951 10.9472 13.2026 10.826 12.9869 10.6103C12.7713 10.3947 12.6501 10.1022 12.6501 9.79717V1.74717C12.6501 1.44217 12.7713 1.14968 12.9869 0.934012C13.2026 0.718345 13.4951 0.597168 13.8001 0.597168Z" fill="#65758B"/>
<path d="M14.9501 15.5472V21.2972H20.7001V15.5472H14.9501ZM13.8001 13.2472H21.8501C22.1551 13.2472 22.4477 13.3684 22.6634 13.584C22.879 13.7997 23.0001 14.0922 23.0001 14.3972V22.4472C23.0001 22.7522 22.879 23.0447 22.6634 23.2603C22.4477 23.476 22.1551 23.5972 21.8501 23.5972H13.8001C13.4951 23.5972 13.2026 23.476 12.9869 23.2603C12.7713 23.0447 12.6501 22.7522 12.6501 22.4472V14.3972C12.6501 14.0922 12.7713 13.7997 12.9869 13.584C13.2026 13.3684 13.4951 13.2472 13.8001 13.2472Z" fill="#65758B"/>
<path d="M2.3 15.5472V21.2972H8.05V15.5472H2.3ZM1.15 13.2472H9.2C9.505 13.2472 9.79756 13.3684 10.0132 13.584C10.2289 13.7997 10.35 14.0922 10.35 14.3972V22.4472C10.35 22.7522 10.2289 23.0447 10.0132 23.2603C9.79756 23.476 9.505 23.5972 9.2 23.5972H1.15C0.845001 23.5972 0.552441 23.476 0.336774 23.2603C0.121107 23.0447 0 22.7522 0 22.4472V14.3972C0 14.0922 0.121107 13.7997 0.336774 13.584C0.552441 13.3684 0.845001 13.2472 1.15 13.2472Z" fill="#65758B"/>
</svg>



