<svg width="20" height="21" viewBox="0 0 20 21" fill="none" xmlns="http://www.w3.org/2000/svg">
<g id="Frame" clip-path="url(#clip0_4405_9031)">
<path id="Form 22" d="M2.9938 21C2.1998 21 1.43829 20.6983 0.876847 20.1613C0.3154 19.6242 0 18.8958 0 18.1364V4.77273C0 4.01324 0.3154 3.28485 0.876847 2.74781C1.43829 2.21078 2.1998 1.90909 2.9938 1.90909H4.98967V0.954545C4.98967 0.701384 5.09482 0.458606 5.28197 0.279594C5.46912 0.100582 5.72293 0 5.9876 0C6.25227 0 6.50608 0.100582 6.69323 0.279594C6.88038 0.458606 6.98554 0.701384 6.98554 0.954545V1.90909H12.9731V0.954545C12.9731 0.701384 13.0783 0.458606 13.2654 0.279594C13.4526 0.100582 13.7064 0 13.9711 0C14.2357 0 14.4896 0.100582 14.6767 0.279594C14.8639 0.458606 14.969 0.701384 14.969 0.954545V1.90909H16.9649C17.7589 1.90909 18.5204 2.21078 19.0818 2.74781C19.6433 3.28485 19.9587 4.01324 19.9587 4.77273V18.1364C19.9587 18.8958 19.6433 19.6242 19.0818 20.1613C18.5204 20.6983 17.7589 21 16.9649 21H2.9938ZM1.99587 18.1364C1.99587 18.3895 2.10102 18.6323 2.28817 18.8113C2.47532 18.9903 2.72913 19.0909 2.9938 19.0909H16.9649C17.2295 19.0909 17.4834 18.9903 17.6705 18.8113C17.8577 18.6323 17.9628 18.3895 17.9628 18.1364V9.54545H1.99587V18.1364ZM17.9628 7.63636V4.77273C17.9628 4.51957 17.8577 4.27679 17.6705 4.09778C17.4834 3.91876 17.2295 3.81818 16.9649 3.81818H14.969V4.77273C14.969 5.02589 14.8639 5.26867 14.6767 5.44768C14.4896 5.62669 14.2357 5.72727 13.9711 5.72727C13.7064 5.72727 13.4526 5.62669 13.2654 5.44768C13.0783 5.26867 12.9731 5.02589 12.9731 4.77273V3.81818H6.98554V4.77273C6.98554 5.02589 6.88038 5.26867 6.69323 5.44768C6.50608 5.62669 6.25227 5.72727 5.9876 5.72727C5.72293 5.72727 5.46912 5.62669 5.28197 5.44768C5.09482 5.26867 4.98967 5.02589 4.98967 4.77273V3.81818H2.9938C2.72913 3.81818 2.47532 3.91876 2.28817 4.09778C2.10102 4.27679 1.99587 4.51957 1.99587 4.77273V7.63636H17.9628Z" fill="#65758B"/>
</g>
<defs>
<clipPath id="clip0_4405_9031">
<rect width="20" height="21" fill="white"/>
</clipPath>
</defs>
</svg>

