<svg width="23" height="24" viewBox="0 0 23 24" fill="none" xmlns="http://www.w3.org/2000/svg">
<g id="Frame" clip-path="url(#clip0_3312_10158)">
<g id="Group 1000005488">
<path id="Form 28" d="M7.78407 10.1829V20.0494H17.7649C17.9967 20.0521 18.2217 19.9671 18.3981 19.8102C18.5745 19.6534 18.6905 19.4352 18.7246 19.1961L20.0605 10.2039C20.0817 10.0602 20.0723 9.91353 20.0332 9.77404C19.9941 9.63455 19.9261 9.50568 19.834 9.39658C19.738 9.28422 19.6194 9.19529 19.4867 9.13599C19.3541 9.0767 19.2105 9.04854 19.0662 9.0535H12.6267V4.05172C12.6251 3.62732 12.494 3.21443 12.2525 2.87277C12.011 2.5311 11.6715 2.27833 11.2831 2.15101L7.9549 9.85976C7.90763 9.97272 7.85044 10.0809 7.78407 10.1829ZM5.84357 20.0494V11.0522H3.90594C3.77918 11.051 3.65347 11.076 3.53603 11.1258C3.4186 11.1755 3.31178 11.249 3.22175 11.342C3.13172 11.435 3.06026 11.5457 3.01149 11.6677C2.96273 11.7896 2.9376 11.9204 2.9376 12.0526V19.0551C2.9376 19.1872 2.96273 19.318 3.01149 19.44C3.06026 19.5619 3.13172 19.6726 3.22175 19.7657C3.31178 19.8587 3.4186 19.9321 3.53603 19.9819C3.65347 20.0316 3.77918 20.0566 3.90594 20.0554L5.84357 20.0494ZM3.90594 22.0502C3.52605 22.0521 3.14951 21.976 2.79784 21.8263C2.44617 21.6765 2.12626 21.4559 1.8564 21.1772C1.58653 20.8985 1.37199 20.5671 1.22505 20.202C1.0781 19.8368 1.00163 19.4451 1 19.0491V12.0466C1.00163 11.6506 1.0781 11.2588 1.22505 10.8936C1.37199 10.5285 1.58653 10.1971 1.8564 9.91838C2.12626 9.63968 2.44617 9.41912 2.79784 9.26934C3.14951 9.11957 3.52605 9.04353 3.90594 9.04551H6.18234L9.80133 0.642475C9.87814 0.465036 10.0026 0.314521 10.1595 0.209092C10.3165 0.103663 10.4994 0.0478251 10.6862 0.0482678C11.1927 0.0456344 11.6947 0.147072 12.1636 0.346776C12.6325 0.546479 13.059 0.840529 13.4188 1.21214C13.7786 1.58374 14.0646 2.02565 14.2605 2.51253C14.4564 2.99941 14.5583 3.52174 14.5605 4.0497V7.05077H19.0633C19.4836 7.04535 19.9 7.13457 20.2841 7.3124C20.6682 7.49024 21.011 7.75245 21.2889 8.08111C21.5649 8.40818 21.7688 8.79441 21.8862 9.2125C22.0036 9.63059 22.0316 10.0704 21.9683 10.501L20.6324 19.4962C20.5245 20.2129 20.1726 20.8651 19.641 21.3334C19.1095 21.8016 18.4339 22.0547 17.738 22.0461H3.91074L3.90594 22.0502Z" fill="#65758B"/>
</g>
</g>
<defs>
<clipPath id="clip0_3312_10158">
<rect width="23" height="23" fill="white" transform="translate(0 0.0482178)"/>
</clipPath>
</defs>
</svg>
