<svg width="17" height="15" viewBox="0 0 17 15" fill="none" xmlns="http://www.w3.org/2000/svg">
<g id="Frame" clip-path="url(#clip0_4474_145)">
<path id="Op component 1" d="M5.58749 12.3626L1.04001 14.9081C0.93499 14.9687 0.815984 15.0009 0.694711 15.0013C0.573438 15.0018 0.45413 14.9706 0.348649 14.9107C0.243168 14.8509 0.155122 14.7645 0.0933069 14.6602C0.0314917 14.5558 -0.00196982 14.4371 -0.00378418 14.3159V3.40966C-0.00365348 3.28894 0.0286693 3.1704 0.0898242 3.06632C0.150979 2.96223 0.238756 2.87635 0.344147 2.81747L5.21518 0.090386C5.31498 0.0346496 5.42684 0.00387805 5.54111 0.000727519C5.65538 -0.00242301 5.76865 0.0221404 5.87137 0.0722929L11.1049 2.63586L15.6524 0.090386C15.7574 0.0297352 15.8765 -0.00241724 15.9978 -0.0028826C16.1191 -0.00334797 16.2383 0.0279097 16.3438 0.0877527C16.4493 0.147596 16.5373 0.233958 16.5991 0.338295C16.6609 0.442633 16.6944 0.561313 16.6962 0.682574V11.5895C16.6961 11.7102 16.6638 11.8287 16.6026 11.9328C16.5415 12.0369 16.4537 12.1228 16.3483 12.1817L11.4773 14.9088C11.3775 14.9645 11.2657 14.9953 11.1514 14.9985C11.0371 15.0016 10.9238 14.9771 10.8211 14.9268L5.58749 12.3626ZM1.39074 3.8035V13.1406L5.21798 10.9966C5.31779 10.9409 5.42956 10.9101 5.54383 10.907C5.6581 10.9038 5.77146 10.9284 5.87418 10.9785L11.1078 13.5421L15.3045 11.1929V1.85718L11.4773 4.00113C11.3775 4.05686 11.2657 4.08763 11.1514 4.09079C11.0371 4.09394 10.9238 4.06937 10.8211 4.01922L5.58749 1.45565L1.39074 3.8035Z" fill="#65758B"/>
<path id="Op component 2" d="M5.57391 0H5.56C5.17953 0 4.87109 0.308433 4.87109 0.688903V11.5791C4.87109 11.9596 5.17953 12.268 5.56 12.268H5.57391C5.95439 12.268 6.26282 11.9596 6.26282 11.5791V0.688903C6.26282 0.308433 5.95439 0 5.57391 0Z" fill="#65758B"/>
<path id="Op component 3" d="M11.1408 2.72778H11.1269C10.7464 2.72778 10.438 3.03621 10.438 3.41668V14.3069C10.438 14.6874 10.7464 14.9958 11.1269 14.9958H11.1408C11.5213 14.9958 11.8297 14.6874 11.8297 14.3069V3.41668C11.8297 3.03621 11.5213 2.72778 11.1408 2.72778Z" fill="#65758B"/>
</g>
<defs>
<clipPath id="clip0_4474_145">
<rect width="16.7007" height="15" fill="white"/>
</clipPath>
</defs>
</svg>
