<svg width="25" height="23" viewBox="0 0 25 23" fill="none" xmlns="http://www.w3.org/2000/svg">
<path d="M19.7093 9.27059H1.96996V7.37058C1.96996 6.77697 2.4562 6.29053 3.05001 6.29053H18.6294C19.223 6.29053 19.7093 6.77695 19.7093 7.37058V9.27059ZM19.7093 18.8505C19.7093 19.4441 19.2232 19.9305 18.6294 19.9305H3.05001C2.4564 19.9305 1.96996 19.4443 1.96996 18.8505V10.3906H19.7093V18.8505ZM18.6294 5.1708H3.05001C1.8358 5.1708 0.85 6.15635 0.85 7.37081V18.8505C0.85 20.0647 1.83557 21.0502 3.05001 21.0502H18.6294C19.8437 21.0502 20.8292 20.0647 20.8292 18.8505V7.37081C20.8292 6.15637 19.8437 5.1708 18.6294 5.1708Z" fill="#65758B" stroke="#65758B" stroke-width="0.3"/>
<path d="M4.27992 6.81069C3.74604 6.81069 3.30996 7.24677 3.30996 7.78065C3.30996 8.31453 3.74604 8.75061 4.27992 8.75061C4.8138 8.75061 5.24988 8.31453 5.24988 7.78065C5.24988 7.24677 4.8138 6.81069 4.27992 6.81069Z" fill="#65758B" stroke="#65758B" stroke-width="0.3"/>
<path d="M6.73964 6.81069C6.20576 6.81069 5.76968 7.24677 5.76968 7.78065C5.76968 8.31453 6.20576 8.75061 6.73964 8.75061C7.27351 8.75061 7.70959 8.31453 7.70959 7.78065C7.70959 7.24677 7.27351 6.81069 6.73964 6.81069Z" fill="#65758B" stroke="#65758B" stroke-width="0.3"/>
<path d="M9.19984 6.81069C8.66596 6.81069 8.22988 7.24677 8.22988 7.78065C8.22988 8.31453 8.66596 8.75061 9.19984 8.75061C9.73372 8.75061 10.1698 8.31453 10.1698 7.78065C10.1698 7.24677 9.73372 6.81069 9.19984 6.81069Z" fill="#65758B" stroke="#65758B" stroke-width="0.3"/>
<path d="M20.2857 3.50625H5.11639C4.80274 3.50625 4.5563 3.75914 4.5563 4.06634C4.5563 4.37394 4.8029 4.62621 5.11639 4.62621H20.2857C20.8794 4.62621 21.3658 5.10908 21.3658 5.70626V16.7758C21.3658 17.0834 21.6126 17.3357 21.9256 17.3357C22.2338 17.3357 22.4855 17.0843 22.4855 16.7758V5.70626C22.4855 4.49163 21.4959 3.50625 20.2857 3.50625Z" fill="#65758B" stroke="#65758B" stroke-width="0.3"/>
<path d="M21.9503 1.85H6.78094C6.47252 1.85 6.22085 2.10156 6.22085 2.40986C6.22085 2.72347 6.47346 2.96996 6.78094 2.96996H21.9503C22.5477 2.96996 23.0303 3.45609 23.0303 4.05001V15.1198C23.0303 15.428 23.282 15.6797 23.5902 15.6797C23.9039 15.6797 24.1501 15.427 24.1501 15.1198V4.04978C24.1501 2.83965 23.1647 1.85 21.9503 1.85Z" fill="#65758B" stroke="#65758B" stroke-width="0.3"/>
</svg>
