<svg width="34" height="24" viewBox="0 0 34 24" fill="none" xmlns="http://www.w3.org/2000/svg">
<path id="Vector" d="M5.11524 18.2397C5.11524 17.769 5.48542 17.3991 5.95656 17.3991H13.6967C14.1679 17.3991 14.538 17.769 14.538 18.2397V18.3742H18.812V18.2397C18.812 17.769 19.1821 17.3991 19.6533 17.3991H27.4271C27.8982 17.3991 28.2684 17.769 28.2684 18.2397C28.2684 18.7105 27.8982 19.0804 27.4271 19.0804H20.36C20.0908 19.652 19.5187 20.0555 18.812 20.0555H14.5717C13.8986 20.0555 13.2929 19.652 13.0237 19.0804H5.95656C5.51907 19.0804 5.11524 18.7105 5.11524 18.2397ZM0 19.8201V18.2397C0 17.769 0.370182 17.3991 0.841322 17.3991H2.42301V2.23389C2.42301 1.02336 3.39894 0.0482178 4.61044 0.0482178H28.6722C29.8501 0.0482178 30.826 0.956113 30.927 2.16664C30.927 2.20026 30.927 2.23389 30.927 2.23389V17.3991H32.5087C32.9798 17.3991 33.35 17.769 33.35 18.2397V19.8201C33.35 21.6023 31.9029 23.0482 30.1193 23.0482H3.23068C1.44707 23.0482 0 21.6023 0 19.8201ZM1.68264 19.8201C1.68264 20.6608 2.38935 21.3669 3.23068 21.3669H30.153C30.9943 21.3669 31.701 20.6608 31.701 19.8201V19.0804H30.1193C29.6482 19.0804 29.278 18.7105 29.278 18.2397V2.30114C29.2443 1.99851 28.9751 1.7295 28.7059 1.7295H4.61044C4.34122 1.7295 4.10565 1.96488 4.10565 2.23389V18.2397C4.10565 18.7105 3.73547 19.0804 3.26433 19.0804H1.68264V19.8201ZM14.639 12.9941C14.8073 13.1623 15.0092 13.2295 15.2448 13.2295C15.4467 13.2295 15.6822 13.1623 15.8505 12.9941L20.8311 8.05114C21.1677 7.71488 21.1677 7.17687 20.8311 6.87424C20.4946 6.53798 19.9562 6.53798 19.6533 6.87424L15.2448 11.212L13.764 9.73243C13.4275 9.39617 12.8891 9.39617 12.5862 9.73243C12.2496 10.0687 12.2496 10.6067 12.5862 10.9093L14.639 12.9941Z" fill="#65758B"/>
</svg>
