<svg width="23" height="24" viewBox="0 0 23 24" fill="none" xmlns="http://www.w3.org/2000/svg">
<g id="Frame" clip-path="url(#clip0_3312_10170)">
<path id="Form 13" d="M14.0425 22.2607H13.9885H9.41094C8.49111 22.2827 7.57076 22.2565 6.65358 22.1824C6.31411 22.1921 5.97625 22.1314 5.66067 22.0041C5.34509 21.8767 5.05845 21.6854 4.81821 21.4417C4.57796 21.198 4.38921 20.9071 4.26347 20.5869C4.13773 20.2666 4.07766 19.9237 4.08693 19.5791C4.0126 18.6465 3.98604 17.7106 4.0074 16.7752V5.80422C3.98578 4.87043 4.01153 3.93612 4.08458 3.00503C4.0751 2.66041 4.135 2.31749 4.26055 1.99716C4.3861 1.67683 4.57467 1.38582 4.81477 1.14201C5.05486 0.898196 5.34144 0.706697 5.65695 0.579149C5.97245 0.451601 6.31024 0.390706 6.64971 0.400218C7.56808 0.324126 8.48977 0.29692 9.41094 0.318716H13.9191C13.9558 0.312267 13.9929 0.308617 14.0302 0.307763C14.0844 0.30734 14.1384 0.312559 14.1915 0.323403C14.7868 0.271752 15.3855 0.367757 15.9361 0.60316C17.1744 1.52065 18.2643 2.62843 19.1666 3.88663C19.3977 4.44415 19.4917 5.05036 19.4407 5.65298C19.4592 5.74647 19.4608 5.8426 19.4453 5.93666V16.7752C19.4674 17.7098 19.4416 18.6449 19.3681 19.5768C19.3774 19.9214 19.3173 20.2643 19.1916 20.5845C19.0658 20.9048 18.8771 21.1956 18.6368 21.4393C18.3966 21.683 18.1099 21.8743 17.7943 22.0017C17.4787 22.129 17.1409 22.1897 16.8014 22.18C15.9221 22.2526 15.0396 22.2788 14.1576 22.2584L14.0425 22.2607ZM6.82343 1.95497C6.65872 1.92494 6.48932 1.93581 6.32966 1.98668C6.17 2.03756 6.02482 2.12692 5.90656 2.24712C5.78831 2.36731 5.7005 2.51477 5.65059 2.67692C5.60068 2.83906 5.59016 3.01106 5.61996 3.17822C5.55512 3.76673 5.55127 4.62875 5.55127 5.80422V16.7752C5.55127 17.9507 5.55512 18.8166 5.61996 19.402C5.59056 19.5692 5.60144 19.7411 5.65162 19.903C5.70181 20.065 5.78981 20.2123 5.90817 20.3323C6.02652 20.4523 6.17172 20.5415 6.33135 20.5922C6.49099 20.643 6.66035 20.6538 6.82498 20.6237C7.40084 20.6895 8.2569 20.6934 9.41094 20.6934H14.0425H14.0966C15.219 20.6934 16.0627 20.6871 16.6285 20.6229C16.7931 20.6526 16.9623 20.6415 17.1218 20.5906C17.2812 20.5398 17.4263 20.4506 17.5445 20.3307C17.6628 20.2108 17.7508 20.0637 17.8011 19.9019C17.8514 19.7401 17.8626 19.5683 17.8335 19.4012C17.8984 18.8166 17.9022 17.9476 17.9022 16.7745V6.58786H14.0425C13.8378 6.58786 13.6415 6.50529 13.4967 6.35833C13.352 6.21136 13.2706 6.01205 13.2706 5.80422V1.886H9.41094C8.25304 1.886 7.39929 1.89072 6.82343 1.95655V1.95497ZM14.8145 5.02057H17.8837C17.8798 4.87093 17.8465 4.72361 17.7857 4.58724C17.4383 4.08709 17.0353 3.62926 16.5846 3.22289C16.1847 2.76602 15.7349 2.35695 15.2437 2.00357C15.1085 1.94194 14.9626 1.9081 14.8145 1.90403V5.02057ZM15.5864 18.3425H7.84545C7.64072 18.3396 7.44551 18.2542 7.30277 18.1052C7.16004 17.9562 7.08148 17.7557 7.08435 17.5479C7.08722 17.3401 7.17129 17.1419 7.31809 16.997C7.46488 16.8521 7.66234 16.7723 7.86707 16.7752H15.6088C15.8135 16.7767 16.0093 16.8606 16.1531 17.0086C16.2968 17.1566 16.3767 17.3565 16.3753 17.5644C16.3739 17.7722 16.2912 17.9709 16.1454 18.1168C15.9997 18.2628 15.8027 18.344 15.598 18.3425H15.5864ZM15.5864 15.2079H7.84545C7.64072 15.205 7.44551 15.1197 7.30277 14.9706C7.16004 14.8216 7.08148 14.6212 7.08435 14.4133C7.08722 14.2055 7.17129 14.0073 7.31809 13.8624C7.46488 13.7175 7.66234 13.6377 7.86707 13.6406H15.6088C15.8135 13.6422 16.0092 13.7263 16.1529 13.8743C16.2966 14.0224 16.3765 14.2223 16.3749 14.4302C16.3734 14.638 16.2906 14.8367 16.1448 14.9826C15.9989 15.1284 15.8019 15.2095 15.5972 15.2079H15.5864ZM15.5864 12.0734H7.84545C7.64072 12.0705 7.44551 11.9851 7.30277 11.8361C7.16004 11.6871 7.08148 11.4866 7.08435 11.2788C7.08722 11.0709 7.17129 10.8728 7.31809 10.7279C7.46488 10.583 7.66234 10.5032 7.86707 10.5061H15.6088C15.8135 10.5075 16.0093 10.5915 16.1531 10.7395C16.2968 10.8875 16.3767 11.0874 16.3753 11.2952C16.3739 11.5031 16.2912 11.7018 16.1454 11.8477C15.9997 11.9936 15.8027 12.0748 15.598 12.0734H15.5864Z" fill="#65758B"/>
</g>
<defs>
<clipPath id="clip0_3312_10170">
<rect width="23" height="23" fill="white" transform="translate(0 0.0482178)"/>
</clipPath>
</defs>
</svg>
