<svg width="23" height="24" viewBox="0 0 23 24" fill="none" xmlns="http://www.w3.org/2000/svg">
<path id="Vector" d="M11.5 7.12513C10.2706 7.12513 9.0922 7.59065 8.22315 8.42108C7.35297 9.25041 6.86518 10.375 6.86518 11.5482C6.86518 12.7215 7.35297 13.846 8.22315 14.6754C9.09217 15.5058 10.2705 15.9713 11.5 15.9713C12.7294 15.9713 13.9077 15.5058 14.7768 14.6754C15.647 13.846 16.1348 12.7215 16.1348 11.5482C16.1348 10.375 15.647 9.25044 14.7768 8.42108C13.9078 7.59065 12.7294 7.12513 11.5 7.12513ZM11.5 14.202C10.3749 14.202 9.36104 13.5552 8.93114 12.5633C8.50011 11.5725 8.73879 10.4302 9.53364 9.67166C10.3285 8.9131 11.5254 8.68531 12.5637 9.09667C13.603 9.50691 14.2809 10.4745 14.2809 11.5482C14.2809 13.0133 13.0352 14.202 11.5 14.202ZM22.2283 13.4358C21.6999 12.9371 21.4021 12.257 21.4021 11.5482C21.4021 10.8394 21.6999 10.1594 22.2283 9.66065L22.3766 9.51911C23.0533 8.87667 23.1958 7.88145 22.7219 7.08975L21.1774 4.54206C20.6757 3.72711 19.6502 3.35005 18.7059 3.63423C17.9806 3.84322 17.1985 3.76139 16.538 3.40755C15.8775 3.0537 15.3978 2.45768 15.2078 1.75885V1.61731C14.9691 0.695106 14.1012 0.0471152 13.1071 0.0482192H9.99255C8.99722 0.0471135 8.12939 0.695106 7.8907 1.61731V1.75885C7.70415 2.47982 7.20822 3.09463 6.52459 3.45069C5.84096 3.80674 5.03221 3.8742 4.29412 3.63425C3.34979 3.34565 2.32089 3.72271 1.82265 4.54207L0.27812 7.08976C-0.195797 7.8815 -0.0532685 8.87668 0.623421 9.51913L0.771734 9.66066C1.30008 10.1594 1.59789 10.8394 1.59789 11.5482C1.59789 12.257 1.30011 12.937 0.771734 13.4358L0.623421 13.5773C-0.0532388 14.2198 -0.195767 15.215 0.27812 16.0067L1.82265 18.5544C2.32436 19.3693 3.34979 19.7464 4.29412 19.4622C5.02759 19.2344 5.82592 19.3063 6.50143 19.6623C7.17577 20.0173 7.66591 20.6243 7.85362 21.3376V21.4791C8.09231 22.4013 8.96018 23.0493 9.95547 23.0482H12.9716H12.9704C13.9657 23.0493 14.8336 22.4013 15.0722 21.4791V21.3376C15.26 20.6244 15.7501 20.0173 16.4244 19.6623C17.0999 19.3063 17.8983 19.2344 18.6317 19.4622C19.5761 19.7508 20.605 19.3737 21.1032 18.5544L22.6477 16.0067C23.1217 15.2149 22.9791 14.2198 22.3024 13.5773L22.2283 13.4358ZM20.9178 14.6974L21.0789 14.839C21.1403 14.9241 21.1403 15.0369 21.0789 15.122L19.5343 17.6697H19.5332C19.4741 17.7693 19.3501 17.8135 19.2365 17.7759C18.0141 17.3999 16.6816 17.5238 15.5578 18.1176C14.4339 18.7125 13.6182 19.7242 13.3041 20.9129V21.0545C13.2671 21.1827 13.1477 21.2734 13.0075 21.279H9.99263C9.85242 21.2734 9.73308 21.1828 9.696 21.0545V20.9129C9.44341 19.9498 8.85828 19.0962 8.03559 18.488C7.21293 17.8809 6.20022 17.5547 5.15972 17.5636C4.67308 17.5636 4.18991 17.6343 3.72643 17.7759C3.61288 17.8091 3.49122 17.7648 3.42981 17.6697L1.88412 15.0867C1.82271 15.0015 1.82271 14.8887 1.88412 14.8036L2.04518 14.6499C2.92812 13.836 3.43445 12.7192 3.45415 11.5482C3.45183 10.3661 2.95938 9.23383 2.08226 8.39898L1.9212 8.25744C1.85979 8.1723 1.85979 8.05951 1.9212 7.97437L3.42981 5.42668C3.4889 5.32716 3.61288 5.28293 3.72643 5.32052C4.94885 5.69648 6.28135 5.57264 7.40517 4.97885C8.52911 4.38394 9.34483 3.37216 9.65884 2.18347V2.04193C9.69591 1.91366 9.81526 1.82299 9.95546 1.81746H12.9715H12.9704C13.1106 1.82299 13.2299 1.91366 13.267 2.04193V2.18347C13.581 3.37216 14.3967 4.38394 15.5207 4.97885C16.6446 5.57266 17.9771 5.69651 19.1994 5.32052C19.313 5.28735 19.4346 5.33158 19.496 5.42668L21.1159 8.00975C21.1773 8.0949 21.1773 8.20769 21.1159 8.29283L20.9548 8.44653C20.0719 9.26038 19.5655 10.3772 19.5458 11.5482C19.5482 12.7303 20.0407 13.8626 20.9178 14.6974Z" fill="#65758B"/>
</svg>
